<svg width="365" height="56" viewBox="0 0 365 56" fill="none" xmlns="http://www.w3.org/2000/svg">
<g clip-path="url(#clip0)">
<path d="M2.08 12.75L23.36 1.08C23.9598 0.749978 24.6343 0.579429 25.3189 0.584682C26.0035 0.589935 26.6753 0.770813 27.27 1.11L48 12.96C48.6089 13.3116 49.1145 13.8175 49.4656 14.4267C49.8167 15.0359 50.001 15.7269 50 16.43V39.97C50.0003 40.6842 49.8095 41.3854 49.4472 42.0009C49.085 42.6164 48.5645 43.1236 47.94 43.47L27.24 54.94C26.653 55.2652 25.9936 55.4374 25.3226 55.4409C24.6515 55.4444 23.9904 55.279 23.4 54.96L2.1 43.46C1.46501 43.1172 0.934571 42.6091 0.564873 41.9894C0.195174 41.3697 -1.02494e-05 40.6616 4.03672e-10 39.94L4.03673e-10 16.26C0.00162564 15.5438 0.195501 14.8412 0.56138 14.2256C0.927259 13.6099 1.45172 13.1038 2.08 12.76V12.75Z" fill="url(#paint0_linear)"/>
<path d="M41.2973 37.2323C39.2187 40.9107 30.2372 39.7143 21.2364 34.5602C12.2357 29.4061 6.62414 22.246 8.70271 18.5677C10.7813 14.8893 19.7628 16.0857 28.7636 21.2398C37.7643 26.3939 43.3758 33.554 41.2973 37.2323Z" stroke="white" stroke-width="1.5"/>
<path d="M41.2973 18.4677C39.2187 14.7893 30.2372 15.9857 21.2364 21.1398C12.2357 26.2939 6.62414 33.454 8.70271 37.1323C10.7813 40.8107 19.7628 39.6143 28.7636 34.4602C37.7643 29.3061 43.3758 22.146 41.2973 18.4677Z" stroke="white" stroke-width="1.5"/>
<path d="M25.07 8.98C20.8671 8.98 17.46 17.4284 17.46 27.85C17.46 38.2716 20.8671 46.72 25.07 46.72C29.2729 46.72 32.68 38.2716 32.68 27.85C32.68 17.4284 29.2729 8.98 25.07 8.98Z" stroke="white" stroke-width="1.5"/>
<path d="M28.04 27.72C28.04 26.03 26.679 24.66 25 24.66C23.3211 24.66 21.96 26.03 21.96 27.72C21.96 29.41 23.3211 30.78 25 30.78C26.679 30.78 28.04 29.41 28.04 27.72Z" fill="white"/>
</g>
<path d="M80.8145 40H75.834L66.1387 24.0957V40H61.1582V15.8281H66.1387L75.8506 31.7656V15.8281H80.8145V40ZM93.1162 40.332C90.4821 40.332 88.335 39.5241 86.6748 37.9082C85.0257 36.2923 84.2012 34.1396 84.2012 31.4502V30.9854C84.2012 29.1813 84.5498 27.571 85.2471 26.1543C85.9443 24.7266 86.9294 23.6309 88.2021 22.8672C89.486 22.0924 90.9469 21.7051 92.585 21.7051C95.042 21.7051 96.9733 22.4798 98.3789 24.0293C99.7956 25.5788 100.504 27.7757 100.504 30.6201V32.5791H89.0654C89.2204 33.7523 89.6852 34.693 90.46 35.4014C91.2458 36.1097 92.2363 36.4639 93.4316 36.4639C95.2799 36.4639 96.7243 35.7943 97.7646 34.4551L100.122 37.0947C99.4027 38.113 98.4287 38.9098 97.2002 39.4854C95.9717 40.0498 94.6104 40.332 93.1162 40.332ZM92.5684 25.5898C91.6165 25.5898 90.8418 25.9108 90.2441 26.5527C89.6576 27.1947 89.2812 28.1133 89.1152 29.3086H95.7891V28.9268C95.7669 27.8643 95.4792 27.0452 94.9258 26.4697C94.3724 25.8831 93.5866 25.5898 92.5684 25.5898ZM110.083 27.3994L113.104 22.0371H118.234L113.121 30.8359L118.45 40H113.304L110.1 34.3555L106.912 40H101.749L107.078 30.8359L101.981 22.0371H107.128L110.083 27.3994ZM126.286 17.6211V22.0371H129.357V25.5566H126.286V34.5215C126.286 35.1855 126.413 35.6615 126.668 35.9492C126.923 36.237 127.41 36.3809 128.129 36.3809C128.66 36.3809 129.131 36.3421 129.54 36.2646V39.9004C128.599 40.1882 127.631 40.332 126.635 40.332C123.27 40.332 121.555 38.6331 121.488 35.2354V25.5566H118.865V22.0371H121.488V17.6211H126.286ZM142.091 15.8281H147.071V32.5625C147.071 34.1009 146.728 35.4622 146.042 36.6465C145.367 37.8197 144.41 38.7272 143.17 39.3691C141.93 40.0111 140.53 40.332 138.97 40.332C136.413 40.332 134.421 39.6846 132.993 38.3896C131.565 37.0837 130.852 35.2409 130.852 32.8613H135.865C135.865 34.0456 136.114 34.9199 136.612 35.4844C137.11 36.0488 137.896 36.3311 138.97 36.3311C139.922 36.3311 140.68 36.0046 141.244 35.3516C141.809 34.6986 142.091 33.7689 142.091 32.5625V15.8281ZM163.872 33.6582C163.872 32.7174 163.54 31.998 162.876 31.5C162.212 30.9909 161.017 30.4596 159.29 29.9062C157.563 29.3418 156.197 28.7884 155.189 28.2461C152.445 26.763 151.072 24.7653 151.072 22.2529C151.072 20.9469 151.438 19.7848 152.168 18.7666C152.91 17.7373 153.966 16.9349 155.339 16.3594C156.722 15.7839 158.272 15.4961 159.987 15.4961C161.714 15.4961 163.252 15.8115 164.603 16.4424C165.953 17.0622 166.999 17.9421 167.74 19.082C168.493 20.222 168.869 21.5169 168.869 22.9668H163.889C163.889 21.86 163.54 21.0023 162.843 20.3936C162.146 19.7738 161.166 19.4639 159.904 19.4639C158.687 19.4639 157.741 19.724 157.065 20.2441C156.39 20.7533 156.053 21.4284 156.053 22.2695C156.053 23.0553 156.446 23.7139 157.231 24.2451C158.028 24.7764 159.196 25.2744 160.734 25.7393C163.568 26.5915 165.632 27.6484 166.927 28.9102C168.222 30.1719 168.869 31.7435 168.869 33.625C168.869 35.7168 168.078 37.3604 166.495 38.5557C164.912 39.7399 162.782 40.332 160.104 40.332C158.244 40.332 156.551 39.9945 155.023 39.3193C153.496 38.6331 152.328 37.6979 151.521 36.5137C150.724 35.3294 150.325 33.957 150.325 32.3965H155.322C155.322 35.0638 156.916 36.3975 160.104 36.3975C161.288 36.3975 162.212 36.1595 162.876 35.6836C163.54 35.1966 163.872 34.5215 163.872 33.6582ZM180.723 40V15.8281H189.189C192.122 15.8281 194.347 16.3926 195.863 17.5215C197.38 18.6393 198.138 20.2829 198.138 22.4521C198.138 23.6364 197.833 24.6823 197.225 25.5898C196.616 26.4863 195.769 27.1449 194.685 27.5654C195.924 27.8753 196.898 28.5007 197.606 29.4414C198.326 30.3822 198.686 31.5332 198.686 32.8945C198.686 35.2188 197.944 36.9785 196.461 38.1738C194.978 39.3691 192.864 39.9779 190.119 40H180.723ZM185.703 29.4746V35.999H189.97C191.143 35.999 192.056 35.7223 192.709 35.1689C193.373 34.6045 193.705 33.8298 193.705 32.8447C193.705 30.6312 192.56 29.5078 190.269 29.4746H185.703ZM185.703 25.9551H189.389C191.901 25.9108 193.157 24.9092 193.157 22.9502C193.157 21.8545 192.836 21.0687 192.194 20.5928C191.563 20.1058 190.562 19.8623 189.189 19.8623H185.703V25.9551ZM201.375 30.8525C201.375 29.0706 201.718 27.4824 202.404 26.0879C203.09 24.6934 204.076 23.6143 205.359 22.8506C206.654 22.0869 208.154 21.7051 209.858 21.7051C212.282 21.7051 214.258 22.4466 215.785 23.9297C217.324 25.4128 218.181 27.4271 218.358 29.9727L218.392 31.2012C218.392 33.957 217.622 36.1706 216.084 37.8418C214.546 39.502 212.481 40.332 209.892 40.332C207.302 40.332 205.232 39.502 203.683 37.8418C202.144 36.1816 201.375 33.9238 201.375 31.0684V30.8525ZM206.173 31.2012C206.173 32.9056 206.494 34.2116 207.136 35.1191C207.778 36.0156 208.696 36.4639 209.892 36.4639C211.054 36.4639 211.961 36.0212 212.614 35.1357C213.267 34.2393 213.594 32.8115 213.594 30.8525C213.594 29.1813 213.267 27.8864 212.614 26.9678C211.961 26.0492 211.043 25.5898 209.858 25.5898C208.685 25.5898 207.778 26.0492 207.136 26.9678C206.494 27.8753 206.173 29.2865 206.173 31.2012ZM226.41 40H221.596V22.0371H226.41V40ZM221.313 17.3887C221.313 16.6693 221.551 16.0771 222.027 15.6123C222.514 15.1475 223.173 14.915 224.003 14.915C224.822 14.915 225.475 15.1475 225.962 15.6123C226.449 16.0771 226.692 16.6693 226.692 17.3887C226.692 18.1191 226.443 18.7168 225.945 19.1816C225.458 19.6465 224.811 19.8789 224.003 19.8789C223.195 19.8789 222.542 19.6465 222.044 19.1816C221.557 18.7168 221.313 18.1191 221.313 17.3887ZM235.441 40H230.627V14.5H235.441V40ZM247.677 40.332C245.043 40.332 242.896 39.5241 241.235 37.9082C239.586 36.2923 238.762 34.1396 238.762 31.4502V30.9854C238.762 29.1813 239.11 27.571 239.808 26.1543C240.505 24.7266 241.49 23.6309 242.763 22.8672C244.047 22.0924 245.507 21.7051 247.146 21.7051C249.603 21.7051 251.534 22.4798 252.939 24.0293C254.356 25.5788 255.064 27.7757 255.064 30.6201V32.5791H243.626C243.781 33.7523 244.246 34.693 245.021 35.4014C245.806 36.1097 246.797 36.4639 247.992 36.4639C249.84 36.4639 251.285 35.7943 252.325 34.4551L254.683 37.0947C253.963 38.113 252.989 38.9098 251.761 39.4854C250.532 40.0498 249.171 40.332 247.677 40.332ZM247.129 25.5898C246.177 25.5898 245.402 25.9108 244.805 26.5527C244.218 27.1947 243.842 28.1133 243.676 29.3086H250.35V28.9268C250.327 27.8643 250.04 27.0452 249.486 26.4697C248.933 25.8831 248.147 25.5898 247.129 25.5898ZM267.897 26.5361C267.244 26.4476 266.669 26.4033 266.171 26.4033C264.356 26.4033 263.166 27.0176 262.602 28.2461V40H257.804V22.0371H262.336L262.469 24.1787C263.432 22.5296 264.765 21.7051 266.47 21.7051C267.001 21.7051 267.499 21.777 267.964 21.9209L267.897 26.5361ZM286.392 31.1846C286.392 33.9515 285.761 36.1706 284.499 37.8418C283.248 39.502 281.555 40.332 279.419 40.332C277.604 40.332 276.137 39.7012 275.02 38.4395V46.9062H270.222V22.0371H274.671L274.837 23.7969C275.999 22.4023 277.515 21.7051 279.386 21.7051C281.599 21.7051 283.32 22.5241 284.549 24.1621C285.777 25.8001 286.392 28.0579 286.392 30.9355V31.1846ZM281.594 30.8359C281.594 29.1647 281.295 27.8753 280.697 26.9678C280.111 26.0602 279.253 25.6064 278.124 25.6064C276.619 25.6064 275.584 26.182 275.02 27.333V34.6875C275.606 35.8717 276.652 36.4639 278.157 36.4639C280.448 36.4639 281.594 34.5879 281.594 30.8359ZM294.443 40H289.629V14.5H294.443V40ZM308.82 40C308.599 39.5684 308.438 39.0316 308.339 38.3896C307.177 39.6846 305.666 40.332 303.807 40.332C302.047 40.332 300.586 39.8229 299.424 38.8047C298.273 37.7865 297.697 36.5026 297.697 34.9531C297.697 33.0495 298.4 31.5885 299.806 30.5703C301.222 29.5521 303.264 29.0374 305.932 29.0264H308.14V27.9971C308.14 27.167 307.924 26.5029 307.492 26.0049C307.072 25.5068 306.402 25.2578 305.483 25.2578C304.675 25.2578 304.039 25.4515 303.574 25.8389C303.12 26.2262 302.894 26.7575 302.894 27.4326H298.096C298.096 26.3923 298.417 25.4294 299.059 24.5439C299.701 23.6585 300.608 22.9668 301.781 22.4688C302.954 21.9596 304.271 21.7051 305.732 21.7051C307.946 21.7051 309.7 22.264 310.995 23.3818C312.301 24.4886 312.954 26.0492 312.954 28.0635V35.8496C312.965 37.554 313.203 38.8434 313.668 39.7178V40H308.82ZM304.853 36.6631C305.561 36.6631 306.214 36.5081 306.812 36.1982C307.409 35.8773 307.852 35.4512 308.14 34.9199V31.832H306.347C303.945 31.832 302.667 32.6621 302.512 34.3223L302.495 34.6045C302.495 35.2021 302.705 35.6947 303.126 36.082C303.547 36.4694 304.122 36.6631 304.853 36.6631ZM322.384 17.6211V22.0371H325.455V25.5566H322.384V34.5215C322.384 35.1855 322.511 35.6615 322.766 35.9492C323.02 36.237 323.507 36.3809 324.227 36.3809C324.758 36.3809 325.228 36.3421 325.638 36.2646V39.9004C324.697 40.1882 323.729 40.332 322.732 40.332C319.368 40.332 317.652 38.6331 317.586 35.2354V25.5566H314.963V22.0371H317.586V17.6211H322.384ZM336.396 40.332C333.761 40.332 331.614 39.5241 329.954 37.9082C328.305 36.2923 327.48 34.1396 327.48 31.4502V30.9854C327.48 29.1813 327.829 27.571 328.526 26.1543C329.224 24.7266 330.209 23.6309 331.481 22.8672C332.765 22.0924 334.226 21.7051 335.864 21.7051C338.321 21.7051 340.253 22.4798 341.658 24.0293C343.075 25.5788 343.783 27.7757 343.783 30.6201V32.5791H332.345C332.5 33.7523 332.965 34.693 333.739 35.4014C334.525 36.1097 335.516 36.4639 336.711 36.4639C338.559 36.4639 340.004 35.7943 341.044 34.4551L343.401 37.0947C342.682 38.113 341.708 38.9098 340.479 39.4854C339.251 40.0498 337.89 40.332 336.396 40.332ZM335.848 25.5898C334.896 25.5898 334.121 25.9108 333.523 26.5527C332.937 27.1947 332.561 28.1133 332.395 29.3086H339.068V28.9268C339.046 27.8643 338.758 27.0452 338.205 26.4697C337.652 25.8831 336.866 25.5898 335.848 25.5898Z" fill="#FEFEFE"/>
<defs>
<linearGradient id="paint0_linear" x1="24" y1="76" x2="26" y2="19.5" gradientUnits="userSpaceOnUse">
<stop stop-color="#F231A5"/>
<stop offset="1" stop-color="#FF66C2"/>
</linearGradient>
<clipPath id="clip0">
<rect width="50" height="56" fill="white"/>
</clipPath>
</defs>
</svg>
